<?xml version="1.0" encoding="UTF-8" standalone="no"?>
<!DOCTYPE svg PUBLIC "-//W3C//DTD SVG 1.1//EN" "http://www.w3.org/Graphics/SVG/1.1/DTD/svg11.dtd">
<svg width="100%" height="100%" viewBox="0 0 861 527" version="1.1" xmlns="http://www.w3.org/2000/svg" xmlns:xlink="http://www.w3.org/1999/xlink" xml:space="preserve" xmlns:serif="http://www.serif.com/" style="fill-rule:evenodd;clip-rule:evenodd;stroke-linejoin:round;stroke-miterlimit:1.5;">
    <g id="_4" serif:id="4" transform="matrix(17.465,0,0,17.465,-982.586,-702.825)">
        <g transform="matrix(0.165,0,0,0.166667,43.7225,13.326)">
            <g transform="matrix(45,0,0,45,174.714,211.944)">
                <path d="M0.509,-0.26C0.509,-0.231 0.505,-0.203 0.498,-0.175C0.49,-0.148 0.478,-0.123 0.463,-0.102C0.447,-0.081 0.427,-0.063 0.404,-0.05C0.38,-0.037 0.352,-0.03 0.32,-0.03C0.289,-0.03 0.261,-0.037 0.237,-0.05C0.214,-0.063 0.194,-0.081 0.178,-0.102C0.162,-0.123 0.15,-0.148 0.142,-0.175C0.134,-0.203 0.13,-0.231 0.13,-0.26C0.13,-0.289 0.134,-0.317 0.141,-0.344C0.148,-0.372 0.16,-0.397 0.175,-0.418C0.19,-0.439 0.21,-0.457 0.233,-0.469C0.256,-0.483 0.284,-0.489 0.316,-0.489C0.347,-0.489 0.375,-0.483 0.399,-0.469C0.423,-0.457 0.443,-0.439 0.46,-0.418C0.476,-0.397 0.488,-0.372 0.497,-0.344C0.505,-0.317 0.509,-0.289 0.509,-0.26ZM0.32,-0.53C0.294,-0.53 0.271,-0.527 0.25,-0.52C0.229,-0.513 0.211,-0.504 0.196,-0.494C0.18,-0.483 0.167,-0.47 0.156,-0.457C0.145,-0.443 0.137,-0.429 0.13,-0.415L0.13,-0.515L0.028,-0.515L0.028,-0.48L0.089,-0.48L0.089,0.144L0.028,0.144L0.028,0.18L0.191,0.18L0.191,0.144L0.13,0.144L0.13,-0.1C0.137,-0.087 0.145,-0.074 0.156,-0.061C0.167,-0.048 0.18,-0.036 0.195,-0.025C0.21,-0.014 0.228,-0.006 0.249,0.001C0.27,0.008 0.293,0.011 0.32,0.011C0.359,0.011 0.393,0.003 0.422,-0.012C0.451,-0.027 0.474,-0.048 0.494,-0.073C0.513,-0.098 0.527,-0.127 0.536,-0.16C0.545,-0.192 0.55,-0.225 0.55,-0.26C0.55,-0.294 0.545,-0.327 0.536,-0.36C0.527,-0.392 0.513,-0.421 0.494,-0.446C0.474,-0.471 0.451,-0.492 0.422,-0.507C0.393,-0.522 0.359,-0.53 0.32,-0.53Z" style="fill:rgb(52,73,94);fill-rule:nonzero;"/>
            </g>
            <g transform="matrix(45,0,0,45,200.859,211.944)">
                <path d="M0.273,-0.486C0.292,-0.486 0.312,-0.483 0.331,-0.477C0.349,-0.471 0.367,-0.462 0.382,-0.45C0.397,-0.438 0.409,-0.423 0.418,-0.405C0.427,-0.386 0.432,-0.365 0.432,-0.34L0.432,-0.283C0.425,-0.294 0.415,-0.304 0.404,-0.314C0.393,-0.324 0.38,-0.333 0.365,-0.341C0.349,-0.349 0.333,-0.355 0.314,-0.36C0.295,-0.365 0.273,-0.367 0.249,-0.367C0.217,-0.367 0.188,-0.362 0.163,-0.352C0.137,-0.341 0.115,-0.327 0.098,-0.31C0.081,-0.293 0.067,-0.273 0.058,-0.25C0.049,-0.227 0.044,-0.204 0.044,-0.179C0.044,-0.155 0.048,-0.132 0.057,-0.109C0.066,-0.086 0.079,-0.066 0.096,-0.049C0.113,-0.031 0.134,-0.017 0.159,-0.006C0.184,0.005 0.214,0.01 0.247,0.01C0.274,0.01 0.298,0.007 0.319,0.002C0.339,-0.003 0.356,-0.01 0.371,-0.018C0.386,-0.026 0.398,-0.035 0.407,-0.044C0.417,-0.053 0.425,-0.062 0.432,-0.07L0.432,-0L0.546,-0L0.546,-0.036L0.472,-0.036L0.472,-0.349C0.472,-0.377 0.467,-0.402 0.457,-0.424C0.446,-0.446 0.432,-0.465 0.414,-0.48C0.397,-0.495 0.376,-0.507 0.352,-0.515C0.327,-0.523 0.301,-0.527 0.273,-0.527C0.241,-0.527 0.21,-0.522 0.179,-0.511C0.148,-0.5 0.123,-0.485 0.103,-0.465L0.127,-0.432C0.142,-0.447 0.163,-0.46 0.189,-0.47C0.215,-0.481 0.243,-0.486 0.273,-0.486ZM0.085,-0.179C0.085,-0.197 0.088,-0.215 0.095,-0.233C0.102,-0.25 0.112,-0.266 0.126,-0.28C0.139,-0.294 0.156,-0.305 0.177,-0.314C0.198,-0.323 0.222,-0.327 0.249,-0.327C0.278,-0.327 0.304,-0.323 0.326,-0.315C0.348,-0.306 0.366,-0.295 0.381,-0.281C0.395,-0.267 0.406,-0.251 0.413,-0.234C0.42,-0.216 0.424,-0.198 0.424,-0.179C0.424,-0.16 0.42,-0.142 0.413,-0.125C0.406,-0.107 0.395,-0.091 0.381,-0.077C0.366,-0.063 0.348,-0.052 0.326,-0.043C0.304,-0.035 0.278,-0.031 0.249,-0.031C0.222,-0.031 0.198,-0.035 0.178,-0.043C0.157,-0.052 0.14,-0.063 0.127,-0.077C0.113,-0.091 0.102,-0.107 0.096,-0.125C0.089,-0.142 0.085,-0.16 0.085,-0.179Z" style="fill:rgb(52,73,94);fill-rule:nonzero;"/>
            </g>
            <g transform="matrix(45,0,0,45,224.979,211.944)">
                <path d="M0.509,-0.26C0.509,-0.231 0.505,-0.203 0.498,-0.175C0.49,-0.148 0.478,-0.123 0.463,-0.102C0.447,-0.081 0.427,-0.063 0.404,-0.05C0.38,-0.037 0.352,-0.03 0.32,-0.03C0.289,-0.03 0.261,-0.037 0.237,-0.05C0.214,-0.063 0.194,-0.081 0.178,-0.102C0.162,-0.123 0.15,-0.148 0.142,-0.175C0.134,-0.203 0.13,-0.231 0.13,-0.26C0.13,-0.289 0.134,-0.317 0.141,-0.344C0.148,-0.372 0.16,-0.397 0.175,-0.418C0.19,-0.439 0.21,-0.457 0.233,-0.469C0.256,-0.483 0.284,-0.489 0.316,-0.489C0.347,-0.489 0.375,-0.483 0.399,-0.469C0.423,-0.457 0.443,-0.439 0.46,-0.418C0.476,-0.397 0.488,-0.372 0.497,-0.344C0.505,-0.317 0.509,-0.289 0.509,-0.26ZM0.32,-0.53C0.294,-0.53 0.271,-0.527 0.25,-0.52C0.229,-0.513 0.211,-0.504 0.196,-0.494C0.18,-0.483 0.167,-0.47 0.156,-0.457C0.145,-0.443 0.137,-0.429 0.13,-0.415L0.13,-0.515L0.028,-0.515L0.028,-0.48L0.089,-0.48L0.089,0.144L0.028,0.144L0.028,0.18L0.191,0.18L0.191,0.144L0.13,0.144L0.13,-0.1C0.137,-0.087 0.145,-0.074 0.156,-0.061C0.167,-0.048 0.18,-0.036 0.195,-0.025C0.21,-0.014 0.228,-0.006 0.249,0.001C0.27,0.008 0.293,0.011 0.32,0.011C0.359,0.011 0.393,0.003 0.422,-0.012C0.451,-0.027 0.474,-0.048 0.494,-0.073C0.513,-0.098 0.527,-0.127 0.536,-0.16C0.545,-0.192 0.55,-0.225 0.55,-0.26C0.55,-0.294 0.545,-0.327 0.536,-0.36C0.527,-0.392 0.513,-0.421 0.494,-0.446C0.474,-0.471 0.451,-0.492 0.422,-0.507C0.393,-0.522 0.359,-0.53 0.32,-0.53Z" style="fill:rgb(52,73,94);fill-rule:nonzero;"/>
            </g>
            <g transform="matrix(45,0,0,45,251.124,211.944)">
                <path d="M0.526,-0.259C0.526,-0.293 0.521,-0.326 0.51,-0.359C0.499,-0.392 0.484,-0.421 0.463,-0.446C0.442,-0.471 0.416,-0.492 0.386,-0.507C0.355,-0.522 0.32,-0.53 0.281,-0.53C0.242,-0.53 0.207,-0.522 0.176,-0.507C0.145,-0.492 0.12,-0.471 0.099,-0.446C0.078,-0.421 0.063,-0.392 0.052,-0.359C0.041,-0.326 0.036,-0.293 0.036,-0.259C0.036,-0.225 0.041,-0.192 0.052,-0.159C0.063,-0.126 0.078,-0.098 0.099,-0.073C0.12,-0.048 0.145,-0.027 0.176,-0.012C0.207,0.003 0.242,0.011 0.281,0.011C0.32,0.011 0.355,0.003 0.386,-0.012C0.416,-0.027 0.442,-0.048 0.463,-0.073C0.484,-0.098 0.499,-0.126 0.51,-0.159C0.521,-0.192 0.526,-0.225 0.526,-0.259ZM0.485,-0.259C0.485,-0.23 0.481,-0.202 0.472,-0.175C0.463,-0.148 0.451,-0.123 0.434,-0.102C0.417,-0.08 0.395,-0.063 0.37,-0.05C0.345,-0.037 0.315,-0.03 0.281,-0.03C0.247,-0.03 0.217,-0.037 0.192,-0.05C0.166,-0.063 0.145,-0.08 0.128,-0.102C0.111,-0.123 0.098,-0.148 0.09,-0.175C0.081,-0.202 0.077,-0.23 0.077,-0.259C0.077,-0.288 0.081,-0.316 0.09,-0.343C0.098,-0.37 0.111,-0.395 0.128,-0.417C0.145,-0.438 0.166,-0.456 0.192,-0.469C0.217,-0.482 0.247,-0.489 0.281,-0.489C0.315,-0.489 0.345,-0.482 0.37,-0.469C0.395,-0.456 0.417,-0.438 0.434,-0.417C0.451,-0.395 0.463,-0.37 0.472,-0.343C0.481,-0.316 0.485,-0.288 0.485,-0.259Z" style="fill:rgb(52,73,94);fill-rule:nonzero;"/>
            </g>
        </g>
        <g transform="matrix(0.165,0,0,0.166667,38.1451,23.6491)">
            <g transform="matrix(60,0,0,60,174.714,211.944)">
                <path d="M0.205,-0.153L0.283,-0.153C0.334,-0.153 0.36,-0.171 0.36,-0.207L0.36,-0.283C0.36,-0.298 0.354,-0.311 0.343,-0.321C0.331,-0.331 0.317,-0.336 0.302,-0.336L0.205,-0.336L0.205,-0.153ZM0.205,-0.673L0.205,-0.49L0.281,-0.49C0.297,-0.49 0.311,-0.495 0.322,-0.505C0.334,-0.516 0.34,-0.528 0.34,-0.543L0.34,-0.673L0.205,-0.673ZM0.041,-0.826L0.382,-0.826C0.416,-0.826 0.444,-0.815 0.468,-0.793C0.492,-0.771 0.504,-0.745 0.504,-0.713L0.504,-0.543C0.504,-0.493 0.486,-0.452 0.451,-0.421C0.5,-0.388 0.524,-0.342 0.524,-0.283L0.524,-0.207C0.524,-0.143 0.5,-0.093 0.452,-0.054C0.407,-0.018 0.35,-0 0.283,-0L0.041,-0L0.041,-0.826Z" style="fill:rgb(44,62,80);fill-rule:nonzero;"/>
            </g>
            <g transform="matrix(60,0,0,60,210.427,211.944)">
                <path d="M0.041,-0L0.041,-0.826L0.205,-0.826L0.205,-0L0.041,-0ZM0.053,-0.858L0.107,-1.01L0.263,-1.01L0.161,-0.858L0.053,-0.858Z" style="fill:rgb(44,62,80);fill-rule:nonzero;"/>
            </g>
            <g transform="matrix(60,0,0,60,228.122,211.944)">
                <path d="M0.205,-0.153L0.283,-0.153C0.334,-0.153 0.36,-0.171 0.36,-0.207L0.36,-0.283C0.36,-0.298 0.354,-0.311 0.343,-0.321C0.331,-0.331 0.317,-0.336 0.302,-0.336L0.205,-0.336L0.205,-0.153ZM0.205,-0.673L0.205,-0.49L0.281,-0.49C0.297,-0.49 0.311,-0.495 0.322,-0.505C0.334,-0.516 0.34,-0.528 0.34,-0.543L0.34,-0.673L0.205,-0.673ZM0.041,-0.826L0.382,-0.826C0.416,-0.826 0.444,-0.815 0.468,-0.793C0.492,-0.771 0.504,-0.745 0.504,-0.713L0.504,-0.543C0.504,-0.493 0.486,-0.452 0.451,-0.421C0.5,-0.388 0.524,-0.342 0.524,-0.283L0.524,-0.207C0.524,-0.143 0.5,-0.093 0.452,-0.054C0.407,-0.018 0.35,-0 0.283,-0L0.041,-0L0.041,-0.826Z" style="fill:rgb(44,62,80);fill-rule:nonzero;"/>
            </g>
            <g transform="matrix(60,0,0,60,263.835,211.944)">
                <path d="M0.041,-0L0.041,-0.826L0.205,-0.826L0.205,-0.153L0.433,-0.153L0.433,-0L0.041,-0Z" style="fill:rgb(44,62,80);fill-rule:nonzero;"/>
            </g>
            <g transform="matrix(60,0,0,60,291.404,211.944)">
                <rect x="0.041" y="-0.826" width="0.164" height="0.826" style="fill:rgb(44,62,80);fill-rule:nonzero;"/>
            </g>
            <g transform="matrix(60,0,0,60,309.099,211.944)">
                <path d="M0.223,-0.32L0.303,-0.32L0.263,-0.672L0.223,-0.32ZM0.193,-0.167L0.16,-0L-0.006,-0L0.154,-0.826L0.373,-0.826L0.532,-0L0.366,-0L0.333,-0.167L0.193,-0.167Z" style="fill:rgb(44,62,80);fill-rule:nonzero;"/>
            </g>
        </g>
        <g transform="matrix(0.166667,0,0,0.166667,53.1414,18.9588)">
            <path d="M311.616,258.25C311.616,258.25 314,275.599 301,273.862C288,272.125 100.75,273.862 100.75,273.862L62.648,306.123L62.648,273.862L30.25,273.862C30.25,273.862 20.541,273.497 21.145,263.811L21.145,258.25" style="fill:none;stroke:rgb(26,188,156);stroke-width:4.81px;"/>
        </g>
        <g transform="matrix(0.166667,0,0,0.166667,53.1687,8.62549)">
            <path d="M311.787,210.625L311.787,200.625C311.787,200.625 312,192.698 299.5,192.287C287,191.875 29.75,192.287 29.75,192.287C29.75,192.287 21.487,193.125 21.118,200.875C20.75,208.625 21.118,210.625 21.118,210.625" style="fill:none;stroke:rgb(26,188,156);stroke-width:4.81px;"/>
        </g>
    </g>
</svg>
